# xmcd
#
# Track frame offsets:
#	150
#	23280
#	39803
#	55466
#	75974
#	101427
#	115921
#	139110
#	160653
#
# Disc length: 2537 seconds
#
# Revision: 1
# Processed by: cddbd v1.4PL0 Copyright (c) Steve Scherf et al.
# Submitted via: MusicWizard 6.0.0
#
DISCID=5a09e709
DTITLE=Charlie Daniels Band - Volunteer Jam VII
DYEAR=1981
DGENRE=Country
TTITLE0=Charlie Daniels Band - Sweet Home Alabama
TTITLE1=Delbert McClinton - Standing On Shakey Ground
TTITLE2=Crystal Gayle and The Charlie Daniels Band - Falling In Love For The Night
TTITLE3=Bobby Bare - Marie Laveau
TTITLE4=Jimmy Hall - (Your Love Has Lifted Me) Higher And Higher
TTITLE5=Molly Hatchet with Ted Nugent - Mississippi Queen
TTITLE6=Ted Nugent - Around And Around
TTITLE7=Dobie Gray - A Change Is Gonna Come
TTITLE8=Charlie Daniels Band - Can't You See
EXTD=(p)1981 Epic Records\\\\ USA,  JE 37178
EXTT0=
EXTT1=
EXTT2=
EXTT3=
EXTT4=
EXTT5=
EXTT6=
EXTT7=
EXTT8=
PLAYORDER=
